#!OML:ASF F:\VICON\USERDATA\INSTALL\rory3\rory3.ASF
:FULLY-SPECIFIED
:DEGREES
198
root 0.832675 24.7189 -17.0896 3.74227 -7.11396 1.23862
lowerback 16.0969 2.13489 -0.556015
upperback 2.13703 2.77675 0.913884
thorax -6.80961 1.37064 0.686309
lowerneck -11.9827 -4.50953 -11.7887
upperneck 8.46439 -5.17062 9.51988
head 5.05957 -2.33657 4.48783
rclavicle -7.95139e-015 -2.38542e-015
rhumerus -33.569 -12.0603 -68.5924
rradius 30.0069
rwrist 2.00904
rhand -20.7487 14.4151
rfingers 7.12502
rthumb 5.61699 -15.4904
lclavicle -7.95139e-015 -2.38542e-015
lhumerus -33.8851 15.6329 78.2824
lradius 57.9905
lwrist 3.14696
lhand -29.3239 17.5295
lfingers 7.12502
lthumb -2.66451 47.4926
rfemur -18.1249 -7.09724 20.6042
rtibia 33.3514
rfoot 33.5205 -5.80967
rtoes 24.1729
lfemur -19.6594 5.91288 -20.5128
ltibia 39.2305
lfoot 37.9608 -10.3616
ltoes 11.3005
199
root 0.814807 24.9696 -17.0981 3.9128 -7.6497 1.59144
lowerback 15.7552 2.2523 -1.03157
upperback 2.18088 2.83904 0.742663
thorax -6.59043 1.41112 0.77255
lowerneck -12.3373 -4.48595 -11.7313
upperneck 9.30191 -5.14145 9.41029
head 5.37005 -2.32192 4.44537
rclavicle 8.54774e-015 8.74653e-015
rhumerus -33.0501 -17.8479 -66.9406
rradius 25.7715
rwrist 2.80895
rhand -20.5051 13.3903
rfingers 7.12502
rthumb 5.85215 -16.5089
lclavicle 8.54774e-015 8.74653e-015
lhumerus -33.6537 16.4035 78.7789
lradius 54.6345
lwrist 6.18753
lhand -31.2799 23.7551
lfingers 7.12502
lthumb -4.55337 53.6862
rfemur -19.1409 -7.45992 20.5709
rtibia 34.669
rfoot 33.432 -5.88309
rtoes 22.8762
lfemur -20.3242 5.83546 -20.7272
ltibia 40.0551
lfoot 37.1445 -10.9805
ltoes 11.31
200
root 0.79775 25.1991 -17.1097 4.20772 -8.06314 1.65831
lowerback 15.4601 2.59491 -0.804759
upperback 1.54404 3.30147 0.247385
thorax -7.07795 1.62623 0.0162913
lowerneck -9.5784 -4.37613 -11.0368
upperneck 9.19166 -5.4031 9.4904
head 4.88456 -2.48888 4.36945
rclavicle -2.25621e-014 9.93923e-015
rhumerus -35.4534 -25.6322 -63.6656
rradius 22.2798
rwrist 6.01731
rhand -20.4987 12.3339
rfingers 7.12502
rthumb 5.85835 -17.5651
lclavicle -2.25621e-014 9.93923e-015
lhumerus -34.2373 15.5572 78.6059
lradius 50.5541
lwrist 9.64134
lhand -31.0216 21.558
lfingers 7.12502
lthumb -4.30404 51.4943
rfemur -20.1413 -7.60924 20.8455
rtibia 35.8313
rfoot 32.9398 -6.81352
rtoes 22.2907
lfemur -21.1328 5.70301 -20.6431
ltibia 40.7084
lfoot 36.2145 -11.6894
ltoes 11.5547
201
root 0.785876 25.4028 -17.1243 4.42982 -8.28947 1.68896
lowerback 15.2348 2.73892 -0.565515
upperback 1.37193 3.51202 -0.065754
thorax -7.10514 1.71764 -0.489382
lowerneck -8.94819 -4.40381 -10.9872
upperneck 9.86457 -5.58744 9.78912
head 5.01104 -2.57651 4.45345
rclavicle 7.12643e-014 -2.0276e-014
rhumerus -38.112 -34.0365 -59.1034
rradius 19.3849
rwrist 11.4288
rhand -20.6502 10.9349
rfingers 7.12502
rthumb 5.71212 -18.9681
lclavicle 7.12643e-014 -2.0276e-014
lhumerus -33.9962 15.0415 78.9103
lradius 47.0389
lwrist 13.1696
lhand -26.8668 15.9732
lfingers 7.12502
lthumb -0.291449 45.9527
rfemur -20.9606 -7.71698 21.1042
rtibia 36.7956
rfoot 31.766 -8.25126
rtoes 22.1477
lfemur -21.8615 5.30075 -20.5226
ltibia 41.2699
lfoot 35.2949 -11.8998
ltoes 12.4286
202
root 0.77431 25.5861 -17.1428 4.55117 -8.36512 1.81085
lowerback 15.1819 2.63461 -0.720068
upperback 1.52226 3.3485 -0.0562053
thorax -6.92415 1.64353 -0.350581
lowerneck -10.0952 -4.4102 -11.3749
upperneck 11.0863 -5.49228 9.76665
head 5.58298 -2.51779 4.50899
rclavicle 1.92821e-014 1.74931e-014
rhumerus -41.1239 -41.6597 -53.7458
rradius 17.2009
rwrist 18.0167
rhand -21.3163 9.14361
rfingers 7.12502
rthumb 5.06895 -20.7758
lclavicle 1.92821e-014 1.74931e-014
lhumerus -33.6502 15.4471 79.4502
lradius 43.8653
lwrist 15.5337
lhand -25.9294 17.4217
lfingers 7.12502
lthumb 0.613952 47.4005
rfemur -21.7031 -8.08361 21.287
rtibia 37.5968
rfoot 31.042 -9.17596
rtoes 21.8362
lfemur -22.5051 4.81913 -20.4886
ltibia 41.7829
lfoot 34.4006 -11.6842
ltoes 11.1587
203
root 0.760415 25.7611 -17.1595 4.76535 -8.24869 1.90659
lowerback 15.0652 2.25951 -0.978223
upperback 1.86487 2.82587 0.159779
thorax -6.51487 1.39928 0.146429
lowerneck -11.93 -4.30783 -12.099
upperneck 11.9357 -5.06691 9.69181
head 6.13241 -2.30381 4.63002
rclavicle -5.26779e-015 3.18055e-015
rhumerus -43.5323 -46.9118 -49.707
rradius 15.9653
rwrist 23.4486
rhand -22.5058 7.59481
rfingers 7.12502
rthumb 3.92033 -22.3489
lclavicle -5.26779e-015 3.18055e-015
lhumerus -32.927 16.9487 79.9602
lradius 40.6071
lwrist 16.0069
lhand -25.2993 17.6175
lfingers 7.12502
lthumb 1.22247 47.5937
rfemur -22.4381 -8.67433 21.5396
rtibia 38.2599
rfoot 30.5438 -10.0875
rtoes 22.1104
lfemur -23.307 4.41285 -20.4275
ltibia 42.2781
lfoot 33.2709 -11.5194
ltoes 8.76447
204
root 0.747244 25.92 -17.1811 5.00326 -8.08537 1.96095
lowerback 14.9845 2.10021 -0.938762
upperback 1.75604 2.61855 0.0875113
thorax -6.57826 1.29707 0.0906531
lowerneck -11.2168 -4.18676 -12.1842
upperneck 11.4637 -4.97016 9.88435
head 5.85816 -2.2632 4.71993
rclavicle 2.48481e-015 1.03368e-014
rhumerus -46.2498 -48.6676 -47.6638
rradius 15.8817
rwrist 25.159
rhand -23.8234 6.14599
rfingers 7.12502
rthumb 2.64792 -23.8173
lclavicle 2.48481e-015 1.03368e-014
lhumerus -32.8966 17.4415 80.0392
lradius 37.5161
lwrist 14.8247
lhand -25.5316 17.9048
lfingers 7.12502
lthumb 0.998184 47.8822
rfemur -23.1735 -9.27576 21.8412
rtibia 38.822
rfoot 29.7018 -10.797
rtoes 21.533
lfemur -24.1274 4.09972 -20.3368
ltibia 42.742
lfoot 32.4965 -11.2907
ltoes 10.6604
205
root 0.730518 26.0574 -17.2152 5.3197 -7.96846 1.85501
lowerback 15.0877 2.00952 -0.853875
upperback 1.70115 2.50949 0.0587481
thorax -6.6875 1.24126 0.0297962
lowerneck -11.5591 -4.26565 -12.1936
upperneck 11.6681 -5.0822 10.1131
head 5.99987 -2.29397 4.78454
rclavicle -1.8487e-014 -8.34896e-015
rhumerus -47.2558 -48.8426 -47.8403
rradius 16.0614
rwrist 24.831
rhand -24.9855 5.05873
rfingers 7.12502
rthumb 1.52559 -24.9156
lclavicle -1.8487e-014 -8.34896e-015
lhumerus -32.692 18.2819 80.0511
lradius 34.7269
lwrist 11.6279
lhand -25.3626 17.0712
lfingers 7.12502
lthumb 1.16135 47.0477
rfemur -24.0091 -9.72955 22.3428
rtibia 39.2538
rfoot 28.8584 -11.4391
rtoes 20.9774
lfemur -25.0492 3.94099 -20.0754
ltibia 43.1821
lfoot 31.715 -11.2629
ltoes 12.1067
206
root 0.713384 26.1796 -17.245 5.58471 -7.91992 1.86804
lowerback 15.2876 1.94954 -0.965123
upperback 1.56532 2.40753 0.0319707
thorax -6.94569 1.19421 0.0754675
lowerneck -11.8632 -4.27344 -12.1607
upperneck 12.0389 -5.10825 10.2568
head 6.17428 -2.28812 4.82508
rclavicle -4.69132e-014 8.34896e-015
rhumerus -47.37 -47.7447 -49.3039
rradius 16.5053
rwrist 22.9582
rhand -25.2792 4.94218
rfingers 7.12502
rthumb 1.24187 -25.034
lclavicle -4.69132e-014 8.34896e-015
lhumerus -32.729 19.6317 79.7997
lradius 32.2244
lwrist 7.1384
lhand -25.294 16.8676
lfingers 7.12502
lthumb 1.22761 46.8439
rfemur -24.763 -10.1258 22.6842
rtibia 39.5954
rfoot 28.0851 -12.0317
rtoes 22.2166
lfemur -25.9081 3.79904 -19.9432
ltibia 43.5282
lfoot 30.0997 -11.0264
ltoes 9.88967
207
root 0.702675 26.292 -17.2558 5.53273 -7.98285 1.75742
lowerback 15.5902 1.91593 -0.798417
upperback 1.60279 2.3828 -0.0273856
thorax -7.0631 1.17562 -0.0857918
lowerneck -11.9382 -4.28564 -11.8736
upperneck 11.9569 -5.16307 10.2531
head 6.16003 -2.29948 4.76902
rclavicle 9.93923e-017 4.77083e-015
rhumerus -47.3435 -46.6061 -51.0917
rradius 17.1795
rwrist 20.8023
rhand -24.6489 5.93801
rfingers 7.12502
rthumb 1.85069 -24.0337
lclavicle 9.93923e-017 4.77083e-015
lhumerus -32.801 20.8764 79.4991
lradius 30.2849
lwrist 2.5852
lhand -25.3553 17.9501
lfingers 7.12502
lthumb 1.16839 47.9267
rfemur -25.0355 -10.4647 23.0589
rtibia 39.8101
rfoot 27.3615 -12.0703
rtoes 22.1557
lfemur -26.2976 3.7376 -19.6955
ltibia 43.7612
lfoot 28.6598 -10.5472
ltoes 8.37272
